<svg width="21" height="20" viewBox="0 0 21 20" fill="none" xmlns="http://www.w3.org/2000/svg">
<path fill-rule="evenodd" clip-rule="evenodd" d="M15.8859 5.65717C15.5447 6.21284 15.2247 6.78407 14.9259 7.37088C13.7113 9.7096 13.104 12.0249 13.104 14.3169C13.104 15.8605 13.4544 17.0766 14.1551 17.9653C14.8559 18.854 15.7668 19.2984 16.888 19.2984C17.8691 19.2984 18.6633 19.0177 19.2706 18.4564C19.9246 17.8951 20.2516 17.1935 20.2516 16.3516C20.2516 15.2758 19.7144 14.3169 18.6399 13.4749C17.472 12.7733 16.7012 12.2354 16.3274 11.8612C16.0004 11.4403 15.7668 10.6919 15.6267 9.61605C15.6267 8.45086 15.919 7.24248 16.5036 5.99093C17.2092 4.48031 18.3406 2.90678 19.8979 1.27035C19.899 1.26916 19.9001 1.26798 19.9013 1.2668L19.621 0.986151C19.6209 0.986169 19.621 0.986133 19.621 0.986151C19.6187 0.988352 19.6164 0.990606 19.6141 0.992808C19.4691 1.13456 19.3262 1.27778 19.1852 1.42248C19.1655 1.44266 19.1459 1.46287 19.1263 1.48311C17.8905 2.76017 16.8104 4.15153 15.8859 5.65717ZM16.3276 9.57105C16.3442 7.27241 17.6292 4.67049 20.4085 1.75087L20.8805 1.25504L19.627 1.33823e-06L19.1316 0.483946C17.1623 2.40763 15.5521 4.597 14.303 7.04964C13.0451 9.47243 12.4032 11.8972 12.4032 14.3169C12.4032 15.9614 12.7766 17.3493 13.6051 18.4001C14.4374 19.4556 15.5502 20 16.888 20C18.0056 20 18.9774 19.6774 19.7364 18.9808C20.535 18.2911 20.9524 17.3998 20.9524 16.3516C20.9524 15.0034 20.2658 13.8581 19.0718 12.9224L19.0376 12.8957L19.0004 12.8733C17.8691 12.1937 17.1774 11.7056 16.8563 11.3977C16.6618 11.1241 16.4599 10.5569 16.3276 9.57105ZM3.48265 5.65717C3.14146 6.21284 2.82148 6.78407 2.52269 7.37088C1.30806 9.7096 0.700749 12.0249 0.700749 14.3169C0.700749 15.8605 1.05112 17.0766 1.75187 17.9653C2.45262 18.854 3.36359 19.2984 4.48479 19.2984C5.46584 19.2984 6.26002 19.0177 6.86734 18.4564C7.52137 17.8951 7.84838 17.1935 7.84838 16.3516C7.84838 15.2758 7.31114 14.3169 6.23666 13.4749C5.06875 12.7733 4.29792 12.2354 3.92419 11.8612C3.59718 11.4403 3.36359 10.6919 3.22344 9.61605C3.22344 8.45086 3.51574 7.24249 4.10033 5.99093C4.80593 4.48031 5.93737 2.90678 7.49463 1.27035C7.49576 1.26916 7.49688 1.26798 7.49801 1.2668L7.21771 0.986151C7.21544 0.988369 7.21317 0.990588 7.2109 0.992808C7.06591 1.13454 6.92294 1.27775 6.78197 1.42243C6.76229 1.44263 6.74265 1.46286 6.72305 1.48311C5.48726 2.76017 4.40712 4.15153 3.48265 5.65717ZM3.92435 9.57105C3.94091 7.27241 5.22595 4.67049 8.00526 1.75087L8.47727 1.25504L7.22379 0L6.72836 0.483946C4.75902 2.40763 3.14885 4.59702 1.89969 7.04967C0.641822 9.47245 0 11.8972 0 14.3169C0 15.9614 0.373334 17.3493 1.20187 18.4001C2.03416 19.4556 3.14697 20 4.48479 20C5.60236 20 6.57416 19.6774 7.33311 18.9808C8.13176 18.2911 8.54913 17.3998 8.54913 16.3516C8.54913 15.0034 7.86259 13.8581 6.66854 12.9224L6.63438 12.8957L6.59719 12.8733C5.46587 12.1937 4.77415 11.7056 4.45303 11.3977C4.25853 11.1241 4.05662 10.5569 3.92435 9.57105Z" fill="#3C3C3C"/>
</svg>
